<?xml version="1.0" encoding="UTF-8" standalone="no"?>
<!DOCTYPE svg PUBLIC "-//W3C//DTD SVG 1.1//EN"
 "http://www.w3.org/Graphics/SVG/1.1/DTD/svg11.dtd">
<!-- Generated by graphviz version 7.0.4 (20221203.1631)
 -->
<!-- Title: G Pages: 1 -->
<svg width="297pt" height="143pt"
 viewBox="0.00 0.00 297.00 143.00" xmlns="http://www.w3.org/2000/svg" xmlns:xlink="http://www.w3.org/1999/xlink">
<g id="graph0" class="graph" transform="scale(1 1) rotate(0) translate(4 139)">
<title>G</title>
<polygon fill="white" stroke="none" points="-4,4 -4,-139 293,-139 293,4 -4,4"/>
<!-- Tabla -->
<g id="node1" class="node">
<title>Tabla</title>
<defs>
<linearGradient id="node1_l_0" gradientUnits="userSpaceOnUse" x1="48.5" y1="-117" x2="236.5" y2="-117" >
<stop offset="0" style="stop-color:#7fc97f;stop-opacity:1.;"/>
<stop offset="1" style="stop-color:#ffff99;stop-opacity:1.;"/>
</linearGradient>
</defs>
<polygon fill="url(#node1_l_0)" stroke="#7fc97f" points="236.5,-135 52.5,-135 52.5,-131 48.5,-131 48.5,-127 52.5,-127 52.5,-107 48.5,-107 48.5,-103 52.5,-103 52.5,-99 236.5,-99 236.5,-135"/>
<polyline fill="none" stroke="#7fc97f" points="52.5,-131 56.5,-131 56.5,-127 52.5,-127"/>
<polyline fill="none" stroke="#7fc97f" points="52.5,-107 56.5,-107 56.5,-103 52.5,-103"/>
<text text-anchor="middle" x="144.5" y="-112.1" font-family="Times New Roman,serif" font-size="20.50"> Tabla De Simbolos </text>
</g>
<!-- TablaSimbolos -->
<g id="node2" class="node">
<title>TablaSimbolos</title>
<defs>
<linearGradient id="node2_l_1" gradientUnits="userSpaceOnUse" x1="0" y1="-31.5" x2="289" y2="-31.5" >
<stop offset="0" style="stop-color:#7fc97f;stop-opacity:1.;"/>
<stop offset="1" style="stop-color:#f0027f;stop-opacity:1.;"/>
</linearGradient>
</defs>
<polygon fill="url(#node2_l_1)" stroke="none" points="289,-63 0,-63 0,0 289,0 289,-63"/>
<polygon fill="none" stroke="#7fc97f" points="0.5,-41.5 0.5,-62.5 54.5,-62.5 54.5,-41.5 0.5,-41.5"/>
<text text-anchor="start" x="3.5" y="-49.3" font-family="Times New Roman,serif" font-weight="bold" font-style="italic" font-size="14.00">Nombre</text>
<polygon fill="none" stroke="#7fc97f" points="54.5,-41.5 54.5,-62.5 141.5,-62.5 141.5,-41.5 54.5,-41.5"/>
<text text-anchor="start" x="84" y="-49.3" font-family="Times New Roman,serif" font-weight="bold" font-style="italic" font-size="14.00">Tipo</text>
<polygon fill="none" stroke="#7fc97f" points="141.5,-41.5 141.5,-62.5 192.5,-62.5 192.5,-41.5 141.5,-41.5"/>
<text text-anchor="start" x="144.5" y="-49.3" font-family="Times New Roman,serif" font-weight="bold" font-style="italic" font-size="14.00">Ambito</text>
<polygon fill="none" stroke="#7fc97f" points="192.5,-41.5 192.5,-62.5 225.5,-62.5 225.5,-41.5 192.5,-41.5"/>
<text text-anchor="start" x="195.5" y="-49.3" font-family="Times New Roman,serif" font-weight="bold" font-style="italic" font-size="14.00">Fila</text>
<polygon fill="none" stroke="#7fc97f" points="225.5,-41.5 225.5,-62.5 289.5,-62.5 289.5,-41.5 225.5,-41.5"/>
<text text-anchor="start" x="228.5" y="-49.3" font-family="Times New Roman,serif" font-weight="bold" font-style="italic" font-size="14.00">Columna</text>
<polygon fill="none" stroke="#7fc97f" points="0.5,-20.5 0.5,-41.5 54.5,-41.5 54.5,-20.5 0.5,-20.5"/>
<text text-anchor="start" x="23.5" y="-28.3" font-family="Times New Roman,serif" font-weight="bold" font-style="italic" font-size="14.00">x</text>
<polygon fill="none" stroke="#7fc97f" points="54.5,-20.5 54.5,-41.5 141.5,-41.5 141.5,-20.5 54.5,-20.5"/>
<text text-anchor="start" x="57.5" y="-28.3" font-family="Times New Roman,serif" font-weight="bold" font-style="italic" font-size="14.00"> VARIABLE </text>
<polygon fill="none" stroke="#7fc97f" points="141.5,-20.5 141.5,-41.5 192.5,-41.5 192.5,-20.5 141.5,-20.5"/>
<text text-anchor="start" x="146" y="-28.3" font-family="Times New Roman,serif" font-weight="bold" font-style="italic" font-size="14.00">Global</text>
<polygon fill="none" stroke="#7fc97f" points="192.5,-20.5 192.5,-41.5 225.5,-41.5 225.5,-20.5 192.5,-20.5"/>
<text text-anchor="start" x="205" y="-28.3" font-family="Times New Roman,serif" font-weight="bold" font-style="italic" font-size="14.00">1</text>
<polygon fill="none" stroke="#7fc97f" points="225.5,-20.5 225.5,-41.5 289.5,-41.5 289.5,-20.5 225.5,-20.5"/>
<text text-anchor="start" x="253.5" y="-28.3" font-family="Times New Roman,serif" font-weight="bold" font-style="italic" font-size="14.00">1</text>
<polygon fill="none" stroke="#7fc97f" points="0.5,0.5 0.5,-20.5 54.5,-20.5 54.5,0.5 0.5,0.5"/>
<text text-anchor="start" x="24" y="-7.3" font-family="Times New Roman,serif" font-weight="bold" font-style="italic" font-size="14.00">y</text>
<polygon fill="none" stroke="#7fc97f" points="54.5,0.5 54.5,-20.5 141.5,-20.5 141.5,0.5 54.5,0.5"/>
<text text-anchor="start" x="57.5" y="-7.3" font-family="Times New Roman,serif" font-weight="bold" font-style="italic" font-size="14.00"> VARIABLE </text>
<polygon fill="none" stroke="#7fc97f" points="141.5,0.5 141.5,-20.5 192.5,-20.5 192.5,0.5 141.5,0.5"/>
<text text-anchor="start" x="146" y="-7.3" font-family="Times New Roman,serif" font-weight="bold" font-style="italic" font-size="14.00">Global</text>
<polygon fill="none" stroke="#7fc97f" points="192.5,0.5 192.5,-20.5 225.5,-20.5 225.5,0.5 192.5,0.5"/>
<text text-anchor="start" x="205" y="-7.3" font-family="Times New Roman,serif" font-weight="bold" font-style="italic" font-size="14.00">5</text>
<polygon fill="none" stroke="#7fc97f" points="225.5,0.5 225.5,-20.5 289.5,-20.5 289.5,0.5 225.5,0.5"/>
<text text-anchor="start" x="253.5" y="-7.3" font-family="Times New Roman,serif" font-weight="bold" font-style="italic" font-size="14.00">1</text>
</g>
<!-- Tabla&#45;&gt;TablaSimbolos -->
<g id="edge1" class="edge">
<title>Tabla&#45;&gt;TablaSimbolos</title>
<path fill="none" stroke="black" d="M144.5,-98.7C144.5,-92.01 144.5,-84.02 144.5,-75.95"/>
<polygon fill="black" stroke="black" points="144.5,-75.85 140.5,-69.85 144.5,-63.85 148.5,-69.85 144.5,-75.85"/>
</g>
</g>
</svg>
