<?xml version="1.0" encoding="UTF-8" standalone="no"?>
<!DOCTYPE svg PUBLIC "-//W3C//DTD SVG 1.1//EN"
 "http://www.w3.org/Graphics/SVG/1.1/DTD/svg11.dtd">
<!-- Generated by graphviz version 7.0.4 (20221203.1631)
 -->
<!-- Title: G Pages: 1 -->
<svg width="596pt" height="143pt"
 viewBox="0.00 0.00 596.00 143.00" xmlns="http://www.w3.org/2000/svg" xmlns:xlink="http://www.w3.org/1999/xlink">
<g id="graph0" class="graph" transform="scale(1 1) rotate(0) translate(4 139)">
<title>G</title>
<polygon fill="white" stroke="none" points="-4,4 -4,-139 592,-139 592,4 -4,4"/>
<!-- Tabla -->
<g id="node1" class="node">
<title>Tabla</title>
<defs>
<linearGradient id="node1_l_0" gradientUnits="userSpaceOnUse" x1="206.5" y1="-117" x2="377.5" y2="-117" >
<stop offset="0" style="stop-color:#7fc97f;stop-opacity:1.;"/>
<stop offset="1" style="stop-color:#ffff99;stop-opacity:1.;"/>
</linearGradient>
</defs>
<polygon fill="url(#node1_l_0)" stroke="#7fc97f" points="377.5,-135 210.5,-135 210.5,-131 206.5,-131 206.5,-127 210.5,-127 210.5,-107 206.5,-107 206.5,-103 210.5,-103 210.5,-99 377.5,-99 377.5,-135"/>
<polyline fill="none" stroke="#7fc97f" points="210.5,-131 214.5,-131 214.5,-127 210.5,-127"/>
<polyline fill="none" stroke="#7fc97f" points="210.5,-107 214.5,-107 214.5,-103 210.5,-103"/>
<text text-anchor="middle" x="294" y="-112.1" font-family="Times New Roman,serif" font-size="20.50"> Tabla De Errores </text>
</g>
<!-- TablaSimbolos -->
<g id="node2" class="node">
<title>TablaSimbolos</title>
<defs>
<linearGradient id="node2_l_1" gradientUnits="userSpaceOnUse" x1="0" y1="-31.5" x2="588" y2="-31.5" >
<stop offset="0" style="stop-color:#7fc97f;stop-opacity:1.;"/>
<stop offset="1" style="stop-color:#f0027f;stop-opacity:1.;"/>
</linearGradient>
</defs>
<polygon fill="url(#node2_l_1)" stroke="none" points="588,-63 0,-63 0,0 588,0 588,-63"/>
<polygon fill="none" stroke="#7fc97f" points="0,-41.5 0,-62.5 27,-62.5 27,-41.5 0,-41.5"/>
<text text-anchor="start" x="3" y="-49.3" font-family="Times New Roman,serif" font-weight="bold" font-style="italic" font-size="14.00">No.</text>
<polygon fill="none" stroke="#7fc97f" points="27,-41.5 27,-62.5 352,-62.5 352,-41.5 27,-41.5"/>
<text text-anchor="start" x="154.5" y="-49.3" font-family="Times New Roman,serif" font-weight="bold" font-style="italic" font-size="14.00">Descripcion</text>
<polygon fill="none" stroke="#7fc97f" points="352,-41.5 352,-62.5 385,-62.5 385,-41.5 352,-41.5"/>
<text text-anchor="start" x="355" y="-49.3" font-family="Times New Roman,serif" font-weight="bold" font-style="italic" font-size="14.00">Fila</text>
<polygon fill="none" stroke="#7fc97f" points="385,-41.5 385,-62.5 449,-62.5 449,-41.5 385,-41.5"/>
<text text-anchor="start" x="388" y="-49.3" font-family="Times New Roman,serif" font-weight="bold" font-style="italic" font-size="14.00">Columna</text>
<polygon fill="none" stroke="#7fc97f" points="449,-41.5 449,-62.5 588,-62.5 588,-41.5 449,-41.5"/>
<text text-anchor="start" x="482" y="-49.3" font-family="Times New Roman,serif" font-weight="bold" font-style="italic" font-size="14.00">Fecha&#45;Hora</text>
<polygon fill="none" stroke="#7fc97f" points="0,-20.5 0,-41.5 27,-41.5 27,-20.5 0,-20.5"/>
<text text-anchor="start" x="5.5" y="-28.3" font-family="Times New Roman,serif" font-weight="bold" font-style="italic" font-size="14.00"> 0 </text>
<polygon fill="none" stroke="#7fc97f" points="27,-20.5 27,-41.5 352,-41.5 352,-20.5 27,-20.5"/>
<text text-anchor="start" x="30" y="-28.3" font-family="Times New Roman,serif" font-weight="bold" font-style="italic" font-size="14.00"> Error: el tipo de dato no coincide con el especificado </text>
<polygon fill="none" stroke="#7fc97f" points="352,-20.5 352,-41.5 385,-41.5 385,-20.5 352,-20.5"/>
<text text-anchor="start" x="360.5" y="-28.3" font-family="Times New Roman,serif" font-weight="bold" font-style="italic" font-size="14.00"> 3 </text>
<polygon fill="none" stroke="#7fc97f" points="385,-20.5 385,-41.5 449,-41.5 449,-20.5 385,-20.5"/>
<text text-anchor="start" x="405.5" y="-28.3" font-family="Times New Roman,serif" font-weight="bold" font-style="italic" font-size="14.00"> 15 </text>
<polygon fill="none" stroke="#7fc97f" points="449,-20.5 449,-41.5 588,-41.5 588,-20.5 449,-20.5"/>
<text text-anchor="start" x="452" y="-28.3" font-family="Times New Roman,serif" font-weight="bold" font-style="italic" font-size="14.00"> 20/12/2022 00:34:02 </text>
<polygon fill="none" stroke="#7fc97f" points="0,0.5 0,-20.5 27,-20.5 27,0.5 0,0.5"/>
<text text-anchor="start" x="5.5" y="-7.3" font-family="Times New Roman,serif" font-weight="bold" font-style="italic" font-size="14.00"> 1 </text>
<polygon fill="none" stroke="#7fc97f" points="27,0.5 27,-20.5 352,-20.5 352,0.5 27,0.5"/>
<text text-anchor="start" x="30" y="-7.3" font-family="Times New Roman,serif" font-weight="bold" font-style="italic" font-size="14.00"> Error: el tipo de dato no coincide con el especificado </text>
<polygon fill="none" stroke="#7fc97f" points="352,0.5 352,-20.5 385,-20.5 385,0.5 352,0.5"/>
<text text-anchor="start" x="360.5" y="-7.3" font-family="Times New Roman,serif" font-weight="bold" font-style="italic" font-size="14.00"> 7 </text>
<polygon fill="none" stroke="#7fc97f" points="385,0.5 385,-20.5 449,-20.5 449,0.5 385,0.5"/>
<text text-anchor="start" x="405.5" y="-7.3" font-family="Times New Roman,serif" font-weight="bold" font-style="italic" font-size="14.00"> 38 </text>
<polygon fill="none" stroke="#7fc97f" points="449,0.5 449,-20.5 588,-20.5 588,0.5 449,0.5"/>
<text text-anchor="start" x="452" y="-7.3" font-family="Times New Roman,serif" font-weight="bold" font-style="italic" font-size="14.00"> 20/12/2022 00:34:02 </text>
</g>
<!-- Tabla&#45;&gt;TablaSimbolos -->
<g id="edge1" class="edge">
<title>Tabla&#45;&gt;TablaSimbolos</title>
<path fill="none" stroke="black" d="M294,-98.7C294,-92.01 294,-84.02 294,-75.95"/>
<polygon fill="black" stroke="black" points="294,-75.85 290,-69.85 294,-63.85 298,-69.85 294,-75.85"/>
</g>
</g>
</svg>
